<?xml version="1.0" standalone="no"?>
<!DOCTYPE svg PUBLIC "-//W3C//DTD SVG 20010904//EN"
 "http://www.w3.org/TR/2001/REC-SVG-20010904/DTD/svg10.dtd">
<svg version="1.0" xmlns="http://www.w3.org/2000/svg"
 width="211.000000pt" height="212.000000pt" viewBox="0 0 211.000000 212.000000"
 preserveAspectRatio="xMidYMid meet">

<g transform="translate(0.000000,212.000000) scale(0.100000,-0.100000)"
fill="#000000" stroke="#000000" stroke-width="50">
<path d="M1066 1840 c-20 -44 -41 -80 -47 -80 -5 0 -3 10 5 22 21 30 20 48 -2
48 -20 0 -39 -31 -264 -430 -82 -146 -155 -270 -161 -277 -7 -6 -83 -16 -182
-23 -93 -6 -174 -15 -179 -20 -13 -13 3 -30 28 -30 12 0 26 -4 32 -10 5 -5 64
-11 130 -12 l121 -3 -95 -168 c-74 -131 -92 -171 -83 -180 17 -17 30 1 136
191 l90 162 38 0 38 0 -73 -137 c-40 -76 -93 -176 -119 -223 -26 -46 -45 -88
-43 -92 20 -32 53 18 210 318 l69 131 170 6 c93 4 213 7 265 7 l95 0 63 -180
c34 -99 82 -249 106 -333 50 -174 62 -207 74 -207 4 0 13 -14 19 -30 12 -32
43 -41 43 -12 0 9 -30 100 -66 202 -65 184 -168 549 -158 559 3 3 69 8 147 11
117 4 142 8 142 20 0 13 -24 15 -145 18 -80 1 -152 5 -160 8 -36 13 24 22 205
28 105 4 194 11 199 16 4 4 5 14 1 20 -6 9 -58 10 -216 5 -172 -6 -210 -5
-213 6 -3 8 -36 132 -75 276 -79 293 -96 346 -110 351 -6 2 -2 20 9 42 23 45
26 80 6 80 -7 0 -30 -36 -50 -80z m85 -330 c33 -122 59 -223 57 -225 -5 -5
-148 407 -148 427 0 9 3 24 6 33 6 15 8 15 15 2 5 -8 36 -115 70 -237z m-292
-99 l-142 -291 -34 0 c-18 0 -33 2 -33 4 0 3 15 31 34 63 18 32 95 168 172
303 76 135 140 237 142 228 2 -9 -61 -147 -139 -307z m261 -14 c46 -131 81
-239 79 -242 -3 -2 -83 -9 -179 -15 -96 -5 -192 -12 -212 -14 -21 -2 -38 -1
-38 4 0 20 253 521 260 513 4 -4 44 -115 90 -246z m108 -304 c3 -10 -35 -13
-166 -13 -93 0 -205 -3 -248 -6 -43 -4 -76 -4 -73 0 7 8 379 35 443 32 22 0
41 -7 44 -13z"/>
</g>
</svg>
