<?xml version="1.0" standalone="no"?>
<!DOCTYPE svg PUBLIC "-//W3C//DTD SVG 20010904//EN"
 "http://www.w3.org/TR/2001/REC-SVG-20010904/DTD/svg10.dtd">
<svg version="1.0" xmlns="http://www.w3.org/2000/svg"
 width="219.000000pt" height="211.000000pt" viewBox="0 0 219.000000 211.000000"
 preserveAspectRatio="xMidYMid meet">

<g transform="translate(0.000000,211.000000) scale(0.100000,-0.100000)"
fill="#000000" stroke="#000000" stroke-width="50">
<path d="M861 2020 c-45 -22 -89 -56 -148 -115 -46 -46 -104 -99 -128 -119
-76 -63 -91 -100 -131 -328 -20 -117 -12 -165 46 -260 20 -35 48 -88 61 -118
33 -80 62 -122 110 -164 50 -42 106 -61 239 -78 l95 -13 6 -95 c4 -52 8 -133
9 -180 l3 -85 -126 -15 c-69 -8 -131 -20 -138 -27 -16 -16 -1 -36 23 -30 11 3
21 0 25 -9 4 -11 29 -14 114 -14 l109 0 0 -57 c0 -32 -5 -85 -10 -118 -9 -55
-8 -61 10 -74 12 -8 20 -25 20 -43 0 -23 4 -29 18 -26 15 3 17 17 13 159 l-4
156 119 9 c95 7 119 12 119 24 0 13 -18 15 -112 13 -119 -2 -152 11 -55 22 84
9 111 15 118 27 14 22 -14 28 -86 19 -41 -6 -77 -8 -79 -5 -5 5 17 268 25 295
4 13 22 17 88 21 100 5 147 27 224 101 100 97 223 308 257 442 30 118 12 288
-42 387 -53 98 -165 188 -303 243 -40 16 -84 40 -97 53 -22 21 -30 23 -121 21
-53 -2 -122 1 -152 5 -49 6 -62 4 -119 -24z m109 -22 c0 -7 -48 -34 -106 -60
-70 -30 -100 -40 -89 -28 26 29 91 71 132 86 48 17 63 17 63 2z m255 -92 c57
-34 137 -56 158 -44 13 7 31 2 68 -19 115 -62 188 -160 203 -268 8 -60 -9
-198 -35 -285 -34 -114 -105 -243 -175 -318 -75 -82 -116 -102 -226 -109 -66
-5 -78 -3 -84 11 -8 20 -30 21 -38 1 -4 -13 -16 -14 -58 -10 -110 13 -364 168
-440 267 -32 42 -68 192 -75 313 -6 89 -5 92 31 165 20 41 54 100 74 130 34
48 50 61 138 105 54 28 146 69 204 92 l105 41 55 -25 c30 -13 73 -35 95 -47z
m25 44 c0 -5 -7 -7 -15 -4 -8 4 -15 8 -15 10 0 2 7 4 15 4 8 0 15 -4 15 -10z
m-465 -1025 c55 -34 57 -36 25 -30 -56 11 -130 56 -156 95 -36 52 -29 56 24
11 26 -22 74 -56 107 -76z m291 -123 c8 -5 8 -33 -1 -102 -7 -52 -13 -79 -14
-60 0 19 -4 65 -8 103 -6 64 -1 76 23 59z m-58 -389 c-10 -2 -26 -2 -35 0 -10
3 -2 5 17 5 19 0 27 -2 18 -5z"/>
</g>
</svg>
