<?xml version="1.0" standalone="no"?>
<!DOCTYPE svg PUBLIC "-//W3C//DTD SVG 20010904//EN"
 "http://www.w3.org/TR/2001/REC-SVG-20010904/DTD/svg10.dtd">
<svg version="1.0" xmlns="http://www.w3.org/2000/svg"
 width="209.000000pt" height="211.000000pt" viewBox="0 0 209.000000 211.000000"
 preserveAspectRatio="xMidYMid meet">

<g transform="translate(0.000000,211.000000) scale(0.100000,-0.100000)"
fill="#000000" stroke="#000000" stroke-width="50">
<path d="M858 1858 c-124 -16 -235 -91 -399 -271 -165 -180 -174 -202 -200
-488 -10 -110 -9 -137 6 -210 19 -97 60 -191 133 -304 125 -197 144 -216 303
-305 127 -71 167 -83 299 -88 185 -6 386 45 515 130 100 67 178 201 244 418
57 191 64 243 56 390 -11 208 -39 304 -130 439 -80 121 -245 261 -308 261 -32
0 -17 -30 26 -51 114 -58 225 -175 293 -311 40 -80 40 -102 0 -33 -15 25 -40
60 -55 78 -15 18 -28 43 -29 56 -2 33 -43 73 -110 106 -31 16 -95 50 -142 77
-47 27 -102 54 -123 60 -29 9 -36 15 -32 29 9 27 -8 30 -74 13 -34 -8 -71 -12
-83 -8 -43 13 -134 19 -190 12z m-18 -54 c-30 -7 -56 -11 -58 -9 -6 6 60 23
88 23 14 0 0 -6 -30 -14z m286 -25 c38 -11 125 -44 194 -72 123 -50 126 -51
215 -142 99 -101 171 -211 210 -321 29 -83 32 -179 10 -319 -51 -315 -209
-548 -433 -636 -51 -21 -74 -23 -212 -23 -157 -1 -209 6 -350 46 -73 21 -77
24 -185 132 -107 108 -112 114 -147 206 -63 165 -118 389 -118 480 0 47 49
200 93 289 50 101 117 174 231 250 89 60 154 85 293 111 126 23 120 23 199 -1z"/>
<path d="M1184 1620 c-32 -14 -45 -27 -53 -53 -22 -64 -12 -70 108 -64 59 4
115 9 124 13 19 7 30 40 25 75 -3 22 -9 24 -63 27 -33 2 -64 7 -69 13 -13 12
-24 11 -72 -11z m61 -51 c9 -14 7 -15 -35 -24 l-35 -7 19 21 c21 23 41 27 51
10z"/>
<path d="M657 1410 c-40 -12 -135 -77 -153 -105 -35 -54 16 -227 80 -266 58
-36 171 -15 241 44 22 18 54 43 72 55 17 13 35 32 38 43 11 33 -39 121 -104
182 -54 52 -63 57 -103 56 -24 0 -55 -4 -71 -9z m113 -50 c16 -9 92 -100 113
-137 12 -20 -41 -71 -109 -104 -60 -30 -66 -31 -108 -19 -74 20 -101 43 -115
93 -26 93 2 127 117 143 28 3 57 13 63 20 14 17 15 17 39 4z"/>
<path d="M1232 890 c-4 -11 -28 -33 -54 -49 -36 -23 -50 -39 -59 -71 -7 -24
-9 -44 -3 -49 5 -5 45 -27 88 -50 88 -45 135 -52 178 -23 30 20 68 65 68 81 0
6 9 15 20 21 36 19 28 33 -55 98 -57 45 -94 62 -133 62 -33 0 -44 -4 -50 -20z
m126 -56 c12 -8 22 -24 22 -34 0 -10 5 -22 10 -25 14 -9 12 -25 -3 -25 -8 0
-22 -9 -33 -21 -16 -18 -25 -20 -79 -14 -40 5 -68 14 -83 28 l-22 21 36 37
c29 29 47 39 78 42 23 2 43 4 46 5 3 1 16 -5 28 -14z"/>
</g>
</svg>
