<?xml version="1.0" standalone="no"?>
<!DOCTYPE svg PUBLIC "-//W3C//DTD SVG 20010904//EN"
 "http://www.w3.org/TR/2001/REC-SVG-20010904/DTD/svg10.dtd">
<svg version="1.0" xmlns="http://www.w3.org/2000/svg"
 width="211.000000pt" height="211.000000pt" viewBox="0 0 211.000000 211.000000"
 preserveAspectRatio="xMidYMid meet">

<g transform="translate(0.000000,211.000000) scale(0.100000,-0.100000)"
fill="#000000" stroke="#000000" stroke-width="50">
<path d="M1845 1889 c-107 -58 -192 -86 -328 -108 -80 -13 -103 -20 -105 -34
-3 -12 3 -17 21 -17 14 0 27 -5 29 -12 6 -16 95 4 197 43 41 16 70 25 65 20
-5 -4 -152 -104 -327 -220 l-318 -213 -50 32 c-95 62 -154 80 -262 80 -103 0
-219 -19 -296 -49 -71 -29 -56 -59 19 -37 14 4 -13 -14 -60 -41 -179 -102
-248 -166 -274 -254 -20 -66 -40 -270 -32 -324 13 -84 143 -285 245 -377 65
-58 172 -113 250 -128 81 -15 259 -12 318 5 65 19 125 72 203 182 137 192 163
266 164 473 1 152 -10 198 -70 276 -19 24 -34 46 -34 48 0 3 129 114 286 248
157 134 304 258 325 277 l40 33 -26 -58 c-42 -96 -75 -146 -134 -201 -43 -42
-52 -56 -43 -65 10 -10 17 -10 32 0 17 11 20 10 20 -8 0 -11 7 -20 15 -20 22
0 257 471 243 487 -13 17 -8 18 -113 -38z m-235 -243 c0 -2 -99 -88 -220 -191
l-220 -187 -30 25 -29 25 247 165 c260 174 252 169 252 163z m-654 -271 c79
-40 89 -52 61 -69 -11 -7 -25 -2 -51 18 -65 49 -145 80 -231 87 -76 7 -75 7
31 5 109 -1 114 -2 190 -41z m-80 -45 c122 -59 285 -243 343 -385 49 -121 39
-190 -55 -375 -64 -126 -137 -204 -231 -247 -101 -46 -169 -43 -343 19 -224
79 -344 202 -396 407 -27 107 -17 170 46 296 40 82 68 122 111 166 77 75 145
119 184 119 17 0 35 4 41 9 16 16 97 30 165 28 51 -2 80 -10 135 -37z m234
-65 c23 -25 23 -25 4 -39 -17 -13 -22 -12 -46 11 -21 20 -25 30 -17 40 17 19
33 16 59 -12z m120 -160 c16 -33 32 -82 35 -110 l6 -50 -38 71 c-22 39 -53 89
-71 111 -37 47 -39 58 -14 72 22 13 42 -11 82 -94z m-1007 0 c-9 -19 -18 -33
-21 -31 -4 5 26 66 33 66 3 0 -3 -16 -12 -35z"/>
</g>
</svg>
