<?xml version="1.0" standalone="no"?>
<!DOCTYPE svg PUBLIC "-//W3C//DTD SVG 20010904//EN"
 "http://www.w3.org/TR/2001/REC-SVG-20010904/DTD/svg10.dtd">
<svg version="1.0" xmlns="http://www.w3.org/2000/svg"
 width="214.000000pt" height="211.000000pt" viewBox="0 0 214.000000 211.000000"
 preserveAspectRatio="xMidYMid meet">

<g transform="translate(0.000000,211.000000) scale(0.100000,-0.100000)"
fill="#000000" stroke="#000000" stroke-width="50">
<path d="M376 2003 c-3 -10 -8 -23 -11 -29 -3 -7 18 -40 48 -75 29 -35 76 -98
104 -139 68 -102 74 -106 113 -84 16 10 30 24 30 30 0 7 -44 66 -98 131 -157
189 -173 202 -186 166z"/>
<path d="M1574 1830 l-189 -190 -95 66 c-60 41 -116 71 -152 81 -43 12 -58 21
-58 34 0 33 -21 32 -101 -6 -64 -30 -87 -36 -117 -31 -52 8 -114 -10 -110 -32
3 -11 12 -16 26 -15 36 4 25 -20 -24 -51 -25 -15 -83 -64 -129 -108 -147 -139
-172 -228 -121 -429 45 -178 136 -323 249 -399 86 -58 157 -81 270 -87 l98 -6
-6 -101 c-4 -56 -8 -106 -10 -112 -2 -8 -27 -7 -86 2 -85 14 -99 12 -99 -11 0
-16 15 -21 100 -33 l55 -8 -75 -12 c-41 -7 -90 -15 -107 -18 -33 -5 -46 -30
-20 -39 7 -3 61 3 120 13 l107 18 -2 -146 c-3 -123 -1 -145 12 -145 8 0 16 10
18 23 2 12 9 22 17 22 19 0 23 18 31 142 4 62 11 115 15 119 5 3 35 2 66 -2
99 -12 113 -11 113 10 0 11 -5 21 -12 23 -6 2 14 10 45 17 58 13 76 26 60 42
-6 6 -54 0 -126 -16 -64 -14 -123 -25 -132 -25 -17 0 -19 45 -9 173 l7 75 56
21 c119 43 230 145 285 261 27 57 31 78 35 170 5 166 -25 298 -93 405 l-36 56
124 157 c68 86 145 177 170 202 45 43 60 80 33 80 -8 0 -99 -85 -203 -190z
m-538 -87 c-1 -14 15 -20 89 -33 51 -9 108 -26 133 -40 79 -45 202 -235 258
-400 26 -78 25 -192 -4 -246 -31 -60 -100 -117 -207 -169 -51 -25 -95 -45 -98
-45 -3 0 -7 12 -9 28 -5 42 -32 35 -36 -10 -3 -37 -5 -38 -66 -57 -103 -32
-149 -35 -210 -16 -107 34 -247 193 -288 328 -18 60 -20 86 -15 186 8 165 33
241 100 305 61 58 216 162 261 175 54 16 94 13 92 -6z m-486 -353 c-5 -25 -10
-79 -10 -120 -2 -68 -3 -72 -12 -40 -12 42 -5 144 12 183 18 37 20 31 10 -23z
m852 -560 c-61 -58 -118 -95 -174 -111 -25 -7 -28 -5 -28 17 0 21 13 31 93 68
50 25 106 53 122 64 56 38 50 22 -13 -38z m-282 -115 c0 -12 -12 -15 -52 -14
l-53 1 35 13 c47 18 70 18 70 0z"/>
</g>
</svg>
