<?xml version="1.0" standalone="no"?>
<!DOCTYPE svg PUBLIC "-//W3C//DTD SVG 20010904//EN"
 "http://www.w3.org/TR/2001/REC-SVG-20010904/DTD/svg10.dtd">
<svg version="1.0" xmlns="http://www.w3.org/2000/svg"
 width="219.000000pt" height="206.000000pt" viewBox="0 0 219.000000 206.000000"
 preserveAspectRatio="xMidYMid meet">

<g transform="translate(0.000000,206.000000) scale(0.100000,-0.100000)"
fill="#000000" stroke="#000000" stroke-width="50">
<path d="M611 1956 c-6 -13 -19 -30 -30 -36 -12 -6 -25 -28 -31 -53 -6 -23
-27 -90 -47 -149 -19 -59 -33 -114 -29 -123 5 -13 14 -15 51 -10 l44 7 -5 -68
c-3 -38 -10 -94 -14 -124 l-9 -55 47 -42 c26 -22 44 -44 40 -48 -3 -4 -35 9
-70 28 -61 34 -88 38 -88 14 0 -7 84 -59 187 -117 102 -57 198 -114 212 -126
44 -36 141 -95 179 -108 l37 -13 6 -179 c3 -98 3 -194 1 -212 l-5 -33 -156 3
c-133 3 -156 1 -156 -12 0 -8 9 -16 20 -18 11 -3 24 -10 28 -18 10 -17 61 -18
176 -4 46 6 85 9 87 8 1 -2 -2 -66 -8 -143 -9 -121 -9 -140 5 -150 8 -6 17
-27 19 -45 2 -24 9 -36 21 -38 16 -3 17 11 17 184 l0 187 198 -4 c170 -3 197
-2 197 11 0 11 -17 17 -64 22 -62 7 -95 18 -53 18 11 0 24 5 28 11 16 26 -17
29 -155 13 -78 -9 -145 -13 -148 -10 -7 6 14 353 23 392 4 14 24 28 60 44 65
26 142 81 279 198 55 47 108 92 117 100 14 12 21 12 33 2 23 -19 35 26 35 133
0 51 3 115 6 144 l7 52 46 3 c44 3 46 5 47 33 1 18 -22 79 -57 150 -31 66 -59
129 -61 139 -2 12 -12 20 -28 21 -14 1 -35 4 -47 8 -20 7 -24 -3 -76 -156 -62
-187 -63 -182 35 -194 l50 -6 -8 -101 c-5 -56 -9 -119 -9 -141 0 -40 -3 -43
-101 -123 -149 -119 -289 -200 -310 -179 -4 3 1 93 10 198 8 105 13 195 10
200 -3 5 -11 9 -18 9 -17 0 -21 -30 -38 -245 -10 -139 -14 -161 -19 -120 -11
79 -10 150 2 162 9 9 9 44 0 137 -15 170 -15 166 12 166 12 0 28 9 35 20 10
17 6 32 -33 107 -37 73 -46 102 -52 168 -6 61 -12 80 -23 80 -8 0 -16 -9 -18
-21 -2 -12 -17 -27 -37 -37 -20 -10 -35 -24 -35 -34 -1 -35 -37 -99 -89 -155
-44 -48 -50 -58 -32 -58 13 0 19 -5 15 -13 -3 -8 0 -26 6 -41 10 -28 11 -28
75 -21 36 3 65 3 65 -2 0 -58 33 -249 45 -263 12 -13 15 -42 15 -129 l0 -113
-32 7 c-18 4 -68 21 -111 38 -64 25 -95 45 -172 114 -105 95 -99 81 -110 268
-4 55 -9 108 -11 118 -5 14 2 17 39 17 29 0 53 7 68 19 l24 19 -33 69 c-19 37
-49 94 -68 125 -27 45 -34 65 -32 99 3 48 -17 65 -31 25z m-41 -296 c-19 -13
-30 -13 -30 0 0 6 10 10 23 10 18 0 19 -2 7 -10z m118 3 c-10 -2 -26 -2 -35 0
-10 3 -2 5 17 5 19 0 27 -2 18 -5z m1039 -9 c-3 -3 -12 -4 -19 -1 -8 3 -5 6 6
6 11 1 17 -2 13 -5z m-648 -166 c-1 -55 -5 -50 -11 15 -2 20 0 37 4 37 4 0 7
-24 7 -52z m-460 -118 c1 -40 -1 -43 -14 -29 -13 12 -14 29 -8 90 7 74 7 74
14 29 4 -25 8 -65 8 -90z m1027 -28 c-11 -10 -12 3 -6 68 l5 65 3 -64 c2 -35
1 -66 -2 -69z m-559 56 c-3 -7 -5 -2 -5 12 0 14 2 19 5 13 2 -7 2 -19 0 -25z
m-7 -408 c13 -9 13 -10 0 -10 -8 0 -22 5 -30 10 -13 9 -13 10 0 10 8 0 22 -5
30 -10z"/>
</g>
</svg>
