<?xml version="1.0" standalone="no"?>
<!DOCTYPE svg PUBLIC "-//W3C//DTD SVG 20010904//EN"
 "http://www.w3.org/TR/2001/REC-SVG-20010904/DTD/svg10.dtd">
<svg version="1.0" xmlns="http://www.w3.org/2000/svg"
 width="214.000000pt" height="212.000000pt" viewBox="0 0 214.000000 212.000000"
 preserveAspectRatio="xMidYMid meet">

<g transform="translate(0.000000,212.000000) scale(0.100000,-0.100000)"
fill="#000000" stroke="#000000" stroke-width="50">
<path d="M980 1935 c-24 -29 -88 -55 -184 -75 -135 -28 -196 -52 -290 -114
-146 -97 -261 -241 -307 -386 -32 -98 -37 -286 -11 -410 35 -172 121 -338 239
-461 50 -52 53 -59 41 -78 -11 -18 -11 -23 2 -31 10 -6 20 -4 31 6 14 13 22
11 65 -19 102 -68 253 -99 499 -100 215 -2 329 32 497 147 l65 45 39 -40 c38
-39 74 -51 74 -25 0 7 -7 19 -15 26 -9 7 -13 21 -9 34 3 14 -1 28 -10 35 -14
12 -7 23 57 91 79 84 132 177 142 250 3 25 13 83 22 130 19 105 13 211 -17
300 -46 133 -132 280 -217 371 -24 26 -42 53 -41 60 2 8 -7 15 -20 17 -12 2
-27 12 -32 23 -6 10 -15 19 -21 19 -6 0 -25 11 -42 24 -54 40 -199 111 -262
128 -110 29 -126 30 -132 8 -5 -17 -14 -20 -67 -20 -60 0 -62 1 -61 27 0 31
-17 40 -35 18z m347 -110 c14 -4 23 -17 25 -33 4 -32 27 -41 35 -13 8 29 19
27 91 -20 56 -37 62 -43 49 -58 -8 -9 -123 -149 -257 -311 -133 -162 -244
-297 -246 -299 -4 -5 -227 194 -369 329 -66 64 -133 124 -148 134 -28 17 -57
16 -57 -3 0 -5 87 -87 193 -181 105 -95 227 -206 269 -247 l77 -74 -224 -273
c-123 -150 -231 -279 -240 -286 -12 -10 -21 -8 -48 13 -84 64 -171 222 -219
399 -30 113 -33 334 -4 418 33 99 79 173 151 245 75 75 140 115 335 205 97 45
126 54 185 57 38 2 72 6 75 9 7 8 299 -2 327 -11z m253 -155 c0 -6 -61 -79
-137 -163 -160 -179 -206 -226 -135 -140 254 312 272 332 272 303z m74 -99
c104 -171 216 -501 216 -633 -1 -82 -76 -228 -172 -332 l-56 -61 -29 26 c-15
14 -140 124 -278 244 -137 120 -250 222 -250 226 0 3 97 114 215 245 118 131
235 262 260 290 25 29 48 53 52 53 4 1 23 -26 42 -58z m161 -191 c40 -79 70
-176 79 -250 5 -47 0 -36 -37 75 -24 72 -58 164 -75 205 -36 85 -17 68 33 -30z
m-475 -655 c129 -121 236 -222 238 -225 4 -10 -137 -90 -213 -120 -171 -68
-395 -85 -555 -42 -98 27 -250 95 -250 113 0 13 40 60 304 352 l178 199 32
-30 c17 -16 137 -127 266 -247z"/>
</g>
</svg>
