<?xml version="1.0" standalone="no"?>
<!DOCTYPE svg PUBLIC "-//W3C//DTD SVG 20010904//EN"
 "http://www.w3.org/TR/2001/REC-SVG-20010904/DTD/svg10.dtd">
<svg version="1.0" xmlns="http://www.w3.org/2000/svg"
 width="211.000000pt" height="206.000000pt" viewBox="0 0 211.000000 206.000000"
 preserveAspectRatio="xMidYMid meet">

<g transform="translate(0.000000,206.000000) scale(0.100000,-0.100000)"
fill="#000000" stroke="#000000" stroke-width="50">
<path d="M985 1981 c-3 -6 -44 -22 -92 -36 -60 -19 -94 -35 -112 -55 -103
-112 -111 -130 -92 -194 7 -23 19 -68 27 -101 17 -67 34 -92 124 -182 64 -66
93 -80 138 -68 15 4 56 10 92 13 114 12 210 85 248 189 31 84 29 155 -5 224
-35 70 -128 163 -195 194 -54 25 -122 33 -133 16z m74 -75 c144 -19 220 -109
224 -268 3 -92 -12 -110 -153 -179 -125 -62 -126 -62 -231 -17 -41 17 -52 29
-93 101 -41 72 -46 89 -46 142 0 102 13 129 79 169 81 50 144 76 156 67 5 -5
34 -11 64 -15z"/>
<path d="M195 1780 c-8 -13 25 -113 82 -250 99 -238 183 -329 358 -390 27 -10
77 -34 110 -54 33 -20 77 -42 99 -48 l39 -12 -7 -105 c-3 -57 -6 -139 -6 -183
l0 -78 -32 0 c-18 0 -50 -3 -71 -7 -31 -5 -38 -10 -34 -24 4 -15 -2 -18 -42
-21 -33 -2 -46 -7 -46 -18 0 -10 12 -16 40 -17 22 -2 72 -5 112 -9 l71 -6 -1
-251 c-2 -218 0 -252 13 -252 12 0 16 21 20 105 5 103 6 104 10 35 4 -54 9
-71 21 -73 13 -2 17 11 22 74 4 42 7 128 7 189 0 62 3 127 6 144 l7 31 152 -6
c116 -5 154 -4 160 5 14 24 -11 30 -162 37 -145 6 -187 16 -125 28 15 3 109 8
210 12 162 6 183 8 180 23 -3 14 -25 16 -212 13 l-208 -4 7 165 c6 124 4 166
-5 172 -24 15 -30 -14 -37 -178 -3 -100 -10 -167 -16 -167 -7 0 -8 48 -4 137
4 75 7 156 7 180 l0 43 39 0 c63 0 190 45 278 99 45 27 92 52 105 56 120 38
225 128 321 276 79 122 168 291 162 307 -10 28 -32 3 -101 -120 -72 -126 -164
-267 -190 -288 -7 -7 9 21 35 62 69 104 182 320 176 336 -10 27 -31 5 -79 -84
-149 -271 -191 -327 -323 -425 -53 -40 -74 -49 -150 -64 -101 -20 -331 -31
-425 -21 -62 7 -68 10 -151 82 -108 93 -162 168 -258 358 -62 125 -79 151 -96
149 -13 -2 -24 6 -31 22 -12 26 -27 32 -37 15z m220 -380 c15 -25 60 -78 98
-117 76 -79 77 -92 4 -40 -59 42 -100 94 -147 188 -36 71 -110 246 -110 258 0
3 29 -50 63 -119 35 -69 76 -145 92 -170z m739 -280 c-20 -20 -149 -60 -196
-60 -43 0 -133 23 -150 38 -4 4 48 8 115 10 67 1 145 6 172 11 70 12 70 12 59
1z m-291 -507 c-7 -2 -21 -2 -30 0 -10 3 -4 5 12 5 17 0 24 -2 18 -5z m67 3
c0 -3 -4 -8 -10 -11 -5 -3 -10 -1 -10 4 0 6 5 11 10 11 6 0 10 -2 10 -4z m-13
-268 c-1 -40 -3 -8 -3 72 0 80 2 112 3 73 2 -40 2 -106 0 -145z"/>
</g>
</svg>
