<?xml version="1.0" standalone="no"?>
<!DOCTYPE svg PUBLIC "-//W3C//DTD SVG 20010904//EN"
 "http://www.w3.org/TR/2001/REC-SVG-20010904/DTD/svg10.dtd">
<svg version="1.0" xmlns="http://www.w3.org/2000/svg"
 width="209.000000pt" height="206.000000pt" viewBox="0 0 209.000000 206.000000"
 preserveAspectRatio="xMidYMid meet">

<g transform="translate(0.000000,206.000000) scale(0.100000,-0.100000)"
fill="#000000" stroke="#000000" stroke-width="50">
<path d="M876 1994 c-3 -9 -7 -68 -7 -132 -1 -64 -4 -103 -6 -87 -1 17 -6 54
-9 83 -4 36 -10 52 -20 52 -23 0 -25 -18 -16 -118 4 -50 6 -92 3 -92 -2 0
-137 23 -298 51 -228 40 -297 49 -306 40 -9 -10 -7 -16 7 -27 18 -13 15 -14
-37 -14 -43 0 -57 -4 -57 -14 0 -8 4 -17 8 -20 5 -3 159 -17 343 -32 184 -14
337 -29 342 -33 15 -14 37 -302 37 -498 l0 -202 -57 -6 c-32 -3 -67 -7 -78 -8
-11 -1 -21 -10 -23 -20 -3 -17 3 -18 72 -15 l76 3 0 -28 c0 -23 -5 -29 -30
-33 -43 -9 -42 -44 1 -44 l32 0 -5 -256 c-5 -219 -3 -256 9 -261 8 -3 19 0 24
8 5 8 9 128 9 267 0 138 4 252 9 252 9 0 16 -67 32 -335 6 -104 14 -205 18
-224 7 -40 26 -51 36 -22 5 17 -14 341 -32 532 l-6 66 65 12 c136 23 228 6
268 -49 11 -16 32 -59 46 -97 22 -57 29 -97 39 -256 15 -212 29 -259 80 -265
15 -2 38 -16 52 -33 75 -89 165 5 372 393 45 84 51 101 43 129 -4 18 -13 34
-18 36 -6 2 -67 -70 -135 -159 -117 -154 -243 -298 -259 -298 -17 0 -94 313
-104 428 -14 141 -49 213 -125 251 -48 24 -149 41 -249 41 -96 0 -85 -18 -102
175 -10 110 -15 493 -7 501 1 2 106 -15 231 -36 172 -30 233 -37 243 -29 19
16 -1 37 -40 42 -18 3 -7 3 23 2 64 -3 80 1 80 21 0 19 -13 21 -292 40 l-248
17 0 159 c0 128 -3 158 -14 158 -8 0 -17 -7 -20 -16z m-593 -251 c-7 -2 -19
-2 -25 0 -7 3 -2 5 12 5 14 0 19 -2 13 -5z m939 -848 c45 -16 98 -57 98 -78 0
-5 -14 4 -31 21 -44 43 -102 56 -212 49 -51 -4 -102 -9 -114 -13 -19 -5 -23
-2 -23 14 0 11 8 23 18 26 33 10 217 -4 264 -19z m571 -417 c-30 -57 -84 -147
-119 -200 -83 -124 -119 -152 -149 -111 -11 15 -5 26 52 83 36 36 110 124 166
197 55 73 101 133 103 133 1 0 -22 -46 -53 -102z m-343 -257 c0 -36 -20 9 -25
54 l-5 50 15 -45 c8 -25 15 -52 15 -59z"/>
</g>
</svg>
