<?xml version="1.0" standalone="no"?>
<!DOCTYPE svg PUBLIC "-//W3C//DTD SVG 20010904//EN"
 "http://www.w3.org/TR/2001/REC-SVG-20010904/DTD/svg10.dtd">
<svg version="1.0" xmlns="http://www.w3.org/2000/svg"
 width="219.000000pt" height="212.000000pt" viewBox="0 0 219.000000 212.000000"
 preserveAspectRatio="xMidYMid meet">

<g transform="translate(0.000000,212.000000) scale(0.100000,-0.100000)"
fill="#000000" stroke="#000000" stroke-width="50">
<path d="M530 1623 c-12 -49 -26 -108 -30 -133 -43 -224 -98 -423 -194 -697
-111 -319 -121 -355 -96 -360 12 -3 26 29 60 131 24 75 46 134 48 131 2 -2 -8
-54 -22 -116 -18 -77 -23 -116 -16 -123 7 -7 14 -6 21 1 7 7 42 149 80 316 75
337 171 641 194 615 7 -7 100 -159 207 -338 233 -389 266 -440 279 -440 6 0 6
-7 -1 -19 -15 -28 -12 -41 8 -41 12 1 59 82 172 301 85 166 160 308 167 317
18 25 -163 -434 -261 -660 -13 -30 -13 -38 -2 -47 10 -8 16 -8 23 1 14 17 95
215 258 628 75 190 138 346 139 348 2 1 20 -60 41 -135 73 -268 186 -669 211
-751 20 -66 29 -83 42 -80 13 3 16 12 14 36 -2 24 1 32 12 32 9 0 16 7 16 16
0 16 -225 804 -272 954 -15 48 -29 75 -38 75 -8 0 -21 10 -28 23 -13 23 -27
28 -36 13 -4 -5 -1 -31 5 -58 l11 -48 -139 -265 c-77 -146 -171 -325 -209
-397 -38 -73 -72 -133 -76 -133 -3 0 -82 116 -174 258 -92 141 -208 317 -256
390 l-89 134 15 46 c21 59 20 72 -2 72 -14 0 -23 -15 -37 -57 -26 -82 -29 -52
-6 47 21 85 20 100 -4 100 -8 0 -21 -31 -35 -87z m220 -423 c6 -11 8 -20 6
-20 -3 0 -10 9 -16 20 -6 11 -8 20 -6 20 3 0 10 -9 16 -20z m170 -262 c83
-128 158 -242 166 -253 8 -12 10 -26 5 -33 -9 -15 -31 17 -209 313 -63 105
-116 193 -119 198 -2 4 -2 7 0 7 3 0 73 -105 157 -232z"/>
</g>
</svg>
