<?xml version="1.0" standalone="no"?>
<!DOCTYPE svg PUBLIC "-//W3C//DTD SVG 20010904//EN"
 "http://www.w3.org/TR/2001/REC-SVG-20010904/DTD/svg10.dtd">
<svg version="1.0" xmlns="http://www.w3.org/2000/svg"
 width="220.000000pt" height="211.000000pt" viewBox="0 0 220.000000 211.000000"
 preserveAspectRatio="xMidYMid meet">

<g transform="translate(0.000000,211.000000) scale(0.100000,-0.100000)"
fill="#000000" stroke="#000000" stroke-width="50">
<path d="M1035 2088 c-2 -7 -8 -49 -13 -93 l-8 -80 -8 62 c-8 60 -30 91 -42
58 -3 -8 2 -97 11 -199 14 -150 15 -206 6 -301 -6 -65 -13 -120 -15 -123 -3
-2 -22 4 -43 15 -49 26 -66 19 -161 -58 l-73 -60 -57 47 c-31 26 -111 91 -177
145 -73 59 -140 125 -172 166 -69 91 -100 120 -114 106 -8 -8 -6 -20 10 -42
13 -18 17 -32 11 -36 -17 -11 -12 -19 51 -69 38 -31 107 -111 191 -220 72 -94
135 -176 140 -183 13 -16 -14 -50 -80 -103 -96 -75 -102 -132 -36 -303 64
-167 134 -259 211 -279 24 -6 43 -14 41 -17 -2 -4 -61 -87 -131 -184 -71 -97
-126 -181 -122 -187 16 -26 24 -18 192 176 61 71 126 143 143 159 l31 30 164
0 164 0 39 -204 c29 -146 45 -207 56 -213 9 -5 16 -22 16 -37 0 -35 27 -62 40
-41 5 8 7 26 4 40 -2 14 -17 111 -34 215 -16 105 -33 207 -36 227 -5 30 -3 38
8 38 9 0 48 16 87 36 134 67 187 148 207 319 3 33 13 72 20 87 8 15 14 36 14
46 0 15 21 27 103 55 56 20 154 47 219 61 127 27 162 41 155 61 -3 7 5 17 19
24 27 12 31 29 10 37 -7 3 -81 -20 -163 -50 -132 -49 -193 -65 -344 -90 -34
-6 -37 -5 -59 40 -50 97 -154 155 -337 190 -48 9 -105 23 -125 31 -40 16 -51
43 -19 43 11 0 22 4 25 8 3 5 -1 57 -8 118 -10 94 -10 134 6 299 10 105 17
201 16 214 -3 27 -25 40 -33 19z m-467 -731 c45 -38 82 -72 82 -77 0 -4 -8
-15 -19 -24 -18 -16 -22 -12 -97 85 -87 114 -85 115 34 16z m569 -56 c88 -38
120 -46 136 -32 17 13 55 -7 131 -67 64 -51 82 -85 91 -167 l7 -61 -68 -122
c-84 -152 -144 -229 -192 -249 -29 -12 -80 -15 -235 -15 -109 0 -201 2 -204 6
-4 3 -20 4 -37 1 -42 -7 -126 42 -167 98 -56 76 -99 192 -99 267 1 73 32 126
142 237 108 108 101 104 243 137 11 3 57 3 102 1 63 -3 98 -11 150 -34z m-676
-292 c-5 -13 -10 -19 -10 -12 -1 15 10 45 15 40 3 -2 0 -15 -5 -28z m1015
-213 c-15 -52 -47 -101 -91 -138 -35 -30 -35 -20 0 32 19 27 48 77 66 110 18
32 35 57 37 55 2 -2 -3 -28 -12 -59z"/>
<path d="M1861 1744 c-72 -48 -186 -109 -307 -165 -251 -115 -314 -147 -314
-159 0 -25 33 -17 131 30 57 27 109 50 114 50 6 0 -32 -28 -82 -61 -89 -59
-114 -89 -75 -89 9 0 105 60 212 132 107 73 249 160 315 193 73 37 120 66 120
75 0 8 9 22 19 31 19 16 15 39 -7 39 -7 0 -63 -35 -126 -76z"/>
<path d="M1516 735 c-4 -11 23 -34 94 -82 55 -36 98 -68 96 -70 -2 -2 -56 12
-120 32 -109 34 -136 37 -136 15 0 -15 29 -26 216 -83 167 -50 185 -59 268
-117 104 -72 111 -76 122 -59 5 8 -7 25 -32 47 -28 24 -34 33 -19 30 14 -2 20
3 20 16 0 15 -18 25 -85 46 -70 22 -113 46 -242 133 -86 59 -161 107 -166 107
-5 0 -12 -7 -16 -15z"/>
</g>
</svg>
