<?xml version="1.0" standalone="no"?>
<!DOCTYPE svg PUBLIC "-//W3C//DTD SVG 20010904//EN"
 "http://www.w3.org/TR/2001/REC-SVG-20010904/DTD/svg10.dtd">
<svg version="1.0" xmlns="http://www.w3.org/2000/svg"
 width="214.000000pt" height="206.000000pt" viewBox="0 0 214.000000 206.000000"
 preserveAspectRatio="xMidYMid meet">

<g transform="translate(0.000000,206.000000) scale(0.100000,-0.100000)"
fill="#000000" stroke="#000000" stroke-width="50">
<path d="M1014 2026 c-3 -7 -1 -132 5 -277 6 -145 9 -264 8 -266 -2 -1 -85 -6
-185 -9 -167 -7 -182 -6 -182 10 0 19 -47 113 -114 230 -31 55 -55 84 -76 94
-59 29 -54 0 31 -169 43 -86 79 -161 79 -167 0 -6 -15 -12 -32 -14 -52 -5 -43
-32 12 -38 34 -5 39 -7 20 -10 -34 -7 -32 -34 2 -38 18 -2 28 -9 28 -19 0 -23
-73 -115 -138 -174 -89 -81 -130 -149 -91 -149 16 0 203 162 233 202 15 21 34
60 40 86 l12 47 181 3 181 2 6 -92 c11 -167 12 -526 1 -537 -6 -6 -46 -17 -89
-25 -93 -18 -141 -44 -219 -120 -104 -100 -118 -171 -55 -288 48 -90 99 -131
204 -163 49 -14 116 -34 149 -44 81 -25 136 -25 226 -2 114 29 267 119 295
173 21 40 17 95 -12 163 -14 33 -34 83 -45 112 -38 98 -133 180 -231 198 -28
5 -35 11 -31 25 7 28 -11 31 -53 9 l-39 -20 -6 73 c-4 40 -7 177 -8 304 l-1
231 58 7 c31 3 113 6 182 7 l124 1 18 -54 c10 -29 35 -74 56 -99 20 -25 59
-76 85 -113 47 -66 71 -79 73 -40 0 10 4 28 9 38 6 15 3 24 -16 38 -88 70
-107 91 -142 158 -25 48 -34 77 -28 83 6 6 7 23 4 38 l-5 29 56 0 c49 0 57 2
54 18 -2 13 -15 18 -55 20 l-51 3 5 42 c3 23 25 139 49 257 29 141 40 218 34
224 -16 16 -28 -3 -43 -69 -8 -33 -15 -50 -16 -37 -1 17 -6 22 -18 20 -14 -3
-23 -28 -40 -118 -12 -63 -28 -163 -34 -222 l-12 -108 -136 0 c-75 0 -152 -3
-172 -6 l-37 -6 -7 250 c-6 190 -10 252 -20 256 -7 2 -16 2 -19 -1 -3 -4 -7
-81 -8 -172 l-1 -166 -7 186 c-4 103 -11 192 -14 198 -10 15 -26 14 -32 -3z
m63 -508 c-2 -18 -4 -4 -4 32 0 36 2 50 4 33 2 -18 2 -48 0 -65z m397 -77 c10
-15 -51 -21 -205 -21 -87 0 -149 4 -149 9 0 17 344 29 354 12z m-444 -16 c0
-13 -27 -15 -182 -15 -209 0 -238 17 -38 23 69 1 146 4 173 5 36 2 47 -1 47
-13z m153 -731 c56 -30 211 -135 244 -167 40 -38 55 -81 55 -156 0 -68 -18
-108 -66 -148 -51 -41 -170 -85 -234 -86 -29 0 -54 2 -55 4 -8 11 6 569 15
569 5 0 23 -7 41 -16z m154 -24 c29 -17 57 -39 63 -50 8 -15 -9 -8 -62 26 -86
55 -85 54 -67 54 8 0 37 -14 66 -30z m-284 -57 c11 -108 8 -453 -3 -453 -37 0
-126 48 -181 98 -35 32 -92 79 -126 106 -33 26 -63 56 -66 66 -10 38 48 114
132 173 50 34 161 76 207 76 l31 1 6 -67z m-251 -353 c59 -57 67 -68 43 -59
-45 15 -89 48 -113 84 -49 70 -20 60 70 -25z"/>
</g>
</svg>
