<?xml version="1.0" standalone="no"?>
<!DOCTYPE svg PUBLIC "-//W3C//DTD SVG 20010904//EN"
 "http://www.w3.org/TR/2001/REC-SVG-20010904/DTD/svg10.dtd">
<svg version="1.0" xmlns="http://www.w3.org/2000/svg"
 width="220.000000pt" height="212.000000pt" viewBox="0 0 220.000000 212.000000"
 preserveAspectRatio="xMidYMid meet">

<g transform="translate(0.000000,212.000000) scale(0.100000,-0.100000)"
fill="#000000" stroke="#000000" stroke-width="50">
<path d="M805 2030 c-8 -12 1 -638 15 -1069 6 -188 13 -287 20 -291 6 -4 -24
-10 -67 -13 -207 -17 -370 -102 -389 -203 -10 -54 3 -135 26 -164 11 -14 27
-38 34 -55 18 -38 52 -70 91 -86 17 -6 100 -15 185 -20 85 -5 178 -12 207 -17
111 -18 320 31 487 115 94 46 136 87 136 129 0 18 -4 36 -10 39 -5 3 -10 21
-10 40 0 56 -19 66 -246 124 -38 10 -40 12 -36 45 7 58 -15 65 -183 58 l-143
-5 -6 64 c-11 119 -12 557 -1 551 6 -3 96 -65 200 -137 291 -201 315 -216 325
-210 22 13 8 34 -47 70 -32 21 -156 105 -275 188 -211 145 -218 150 -218 183
0 19 3 34 8 34 4 0 127 -92 272 -205 146 -112 270 -203 275 -202 33 11 -8 49
-238 225 -138 106 -261 199 -272 206 -22 16 -24 13 298 360 86 93 157 173 157
178 0 5 -7 11 -17 15 -11 4 -25 -4 -44 -25 -16 -17 -31 -27 -34 -22 -3 6 -12
10 -20 10 -13 0 -156 -168 -307 -361 l-75 -96 -7 251 c-4 138 -11 255 -16 260
-6 6 -15 4 -24 -3 -12 -10 -15 -8 -18 15 -3 29 -22 42 -33 24z m42 -213 c-2
-23 -3 -1 -3 48 0 50 1 68 3 42 2 -26 2 -67 0 -90z m10 -304 c-2 -32 -3 -6 -3
57 0 63 1 89 3 58 2 -32 2 -84 0 -115z m0 -270 c-2 -16 -4 -5 -4 22 0 28 2 40
4 28 2 -13 2 -35 0 -50z m10 -280 c-2 -27 -3 -5 -3 47 0 52 1 74 3 48 2 -27 2
-69 0 -95z m0 -85 c-3 -8 -6 -5 -6 6 -1 11 2 17 5 13 3 -3 4 -12 1 -19z m-197
-293 c-69 -18 -134 -36 -145 -40 -11 -3 -2 4 19 16 22 12 78 30 125 40 137 28
137 20 1 -16z m465 26 c33 -7 35 -9 12 -10 -54 -2 -26 -31 63 -65 69 -27 228
-111 250 -133 10 -10 -123 -121 -174 -146 -70 -34 -199 -64 -330 -77 l-108
-11 -107 35 c-58 20 -128 40 -156 46 -94 20 -102 25 -109 83 -15 125 -3 151
81 181 47 16 253 64 311 72 20 2 71 11 112 18 90 17 104 17 155 7z m346 -157
c17 -20 -2 -17 -31 6 -24 18 -24 19 -3 14 12 -4 28 -12 34 -20z m-1054 -81
c-3 -10 -5 -2 -5 17 0 19 2 27 5 18 2 -10 2 -26 0 -35z m1083 -17 c0 -18 -51
-61 -104 -87 -40 -20 -39 -19 24 40 68 63 80 70 80 47z m-823 -180 c10 -9 -47
-7 -97 4 -50 11 -90 29 -90 41 0 7 177 -35 187 -45z"/>
</g>
</svg>
