<?xml version="1.0" standalone="no"?>
<!DOCTYPE svg PUBLIC "-//W3C//DTD SVG 20010904//EN"
 "http://www.w3.org/TR/2001/REC-SVG-20010904/DTD/svg10.dtd">
<svg version="1.0" xmlns="http://www.w3.org/2000/svg"
 width="209.000000pt" height="212.000000pt" viewBox="0 0 209.000000 212.000000"
 preserveAspectRatio="xMidYMid meet">

<g transform="translate(0.000000,212.000000) scale(0.100000,-0.100000)"
fill="#000000" stroke="#000000" stroke-width="50">
<path d="M965 2097 c-36 -17 -78 -64 -107 -121 -12 -22 -51 -74 -88 -114 -37
-40 -83 -103 -101 -140 -32 -62 -34 -72 -33 -162 1 -71 6 -110 22 -154 12 -33
22 -80 22 -105 0 -68 25 -154 74 -257 66 -137 126 -194 204 -194 29 0 30 -1
42 -81 12 -78 8 -339 -6 -395 l-5 -21 -106 24 c-80 19 -108 22 -116 13 -15
-14 16 -40 47 -40 16 0 18 -2 7 -9 -8 -5 -11 -16 -7 -26 6 -16 16 -17 91 -12
l85 6 -2 -92 c-3 -78 -1 -92 13 -95 14 -3 18 11 24 88 5 61 11 90 19 87 13 -4
23 -46 33 -147 6 -57 12 -75 23 -75 13 0 14 17 12 102 l-3 101 47 -1 c49 -2
72 16 37 31 -10 4 -18 16 -18 27 0 16 -8 21 -40 25 l-39 5 -17 135 c-10 74
-18 176 -18 226 l-1 91 78 6 c80 5 265 61 427 129 68 28 80 38 83 59 2 15 -4
32 -13 39 -14 12 -23 11 -59 -2 l-42 -15 4 33 c7 58 -22 55 -242 -25 -107 -39
-219 -77 -247 -83 l-52 -12 -41 46 c-75 86 -186 311 -186 377 0 16 15 82 34
148 19 65 49 170 66 233 17 63 39 123 48 133 9 11 38 30 64 43 62 32 128 31
254 -2 190 -50 182 -49 201 -32 10 8 30 18 45 22 31 7 46 42 27 61 -8 8 -93
39 -189 70 -193 63 -298 78 -355 52z m-207 -439 c-11 -40 -23 -81 -25 -90 -3
-10 -10 -18 -15 -18 -23 0 10 125 44 168 18 21 17 14 -4 -60z m289 -1290 c-2
-13 -4 -3 -4 22 0 25 2 35 4 23 2 -13 2 -33 0 -45z"/>
</g>
</svg>
