<?xml version="1.0" standalone="no"?>
<!DOCTYPE svg PUBLIC "-//W3C//DTD SVG 20010904//EN"
 "http://www.w3.org/TR/2001/REC-SVG-20010904/DTD/svg10.dtd">
<svg version="1.0" xmlns="http://www.w3.org/2000/svg"
 width="220.000000pt" height="206.000000pt" viewBox="0 0 220.000000 206.000000"
 preserveAspectRatio="xMidYMid meet">

<g transform="translate(0.000000,206.000000) scale(0.100000,-0.100000)"
fill="#000000" stroke="#000000" stroke-width="50">
<path d="M620 1945 c0 -9 7 -30 16 -48 l17 -32 -21 18 c-20 19 -42 16 -42 -4
0 -6 35 -47 78 -92 67 -70 84 -94 113 -167 29 -74 33 -96 34 -175 0 -102 -8
-129 -93 -333 -43 -103 -61 -136 -79 -143 -26 -10 -29 -19 -11 -37 13 -13 -12
-47 -43 -57 -21 -7 -25 -31 -6 -37 10 -4 164 3 748 36 l96 5 7 -392 c4 -216 9
-400 12 -410 7 -24 28 -16 32 11 2 12 9 22 17 22 7 0 16 7 19 16 3 9 6 181 6
383 l0 368 46 7 c26 3 93 6 149 6 74 0 106 4 114 13 6 8 8 17 4 21 -4 3 2 12
12 20 40 29 7 36 -161 36 l-164 0 0 409 c0 225 -3 416 -6 425 -3 9 -12 16 -19
16 -22 0 -25 -25 -27 -208 l-2 -177 -6 205 c-4 173 -7 205 -20 205 -13 0 -15
-54 -13 -436 l2 -437 -342 -4 c-188 -2 -344 -3 -345 -2 -2 1 26 44 62 94 81
114 152 252 161 317 11 84 -31 169 -156 314 -25 30 -72 100 -104 157 -52 93
-85 127 -85 87z m257 -397 c62 -104 62 -161 1 -281 -35 -70 -108 -181 -114
-174 -2 2 7 28 20 58 73 166 96 315 62 407 -21 57 -7 53 31 -10z m553 -618 c0
-5 -6 -10 -12 -10 -7 0 -173 -9 -368 -20 -195 -11 -364 -20 -374 -20 -18 0
-18 2 4 25 22 23 30 25 149 28 328 8 601 6 601 -3z m250 4 c-35 -7 -160 -9
-160 -2 0 4 39 7 88 7 48 -1 80 -3 72 -5z"/>
</g>
</svg>
